# Blender 3.5.1
# www.blender.org
mtllib cuerpo.mtl
o Cubo
v -0.620954 0.000000 0.000000
v -0.613585 -0.001782 -0.007841
v 0.000000 0.000000 -1.000000
v 0.000000 -1.000000 0.000000
v 0.000000 1.000000 0.000000
v 0.000000 0.000000 1.000000
v 1.937518 0.000000 0.000000
vn 0.3428 -0.6643 -0.6643
vn 0.3428 0.6643 0.6643
vn 0.0017 0.7071 -0.7071
vn 0.3428 -0.6643 0.6643
vn -0.7514 0.4666 0.4666
vn -0.7521 -0.4660 -0.4660
vn -0.7572 -0.4618 0.4618
vt 0.000000 0.000000
vt 0.625000 0.500000
vt 0.500000 0.500000
vt 0.000000 0.000000
vt 0.625000 0.625000
vt 0.000000 0.000000
vt 0.500000 0.625000
s 0
f 7/7/1 4/4/1 3/3/1
f 6/6/2 7/7/2 5/5/2
f 3/3/3 2/2/3 5/5/3 7/7/3
f 6/6/4 4/4/4 7/7/4
f 6/6/5 5/5/5 1/1/5
f 3/3/6 4/4/6 2/2/6
f 4/4/7 6/6/7 2/2/7
l 1 7
l 3 5
