# Blender 3.5.1
# www.blender.org
mtllib propulsores.mtl
o Cubo.001
v 0.000000 -0.500000 -1.500000
v -0.310477 -0.250000 -0.700000
v 0.000000 -0.500000 1.500000
v -0.310477 -0.250000 0.700000
v 0.000000 0.370000 0.700000
v 0.968759 -0.250000 0.700000
v 0.968759 -0.250000 -0.700000
v 0.000000 0.370000 -0.700000
vn -0.8039 0.4026 -0.4378
vn -0.0000 -0.9545 0.2983
vn -0.3975 -0.6211 -0.6754
vn 0.3975 0.6211 -0.6754
vn -0.0000 -0.0000 1.0000
vn 0.8039 -0.4026 -0.4378
vn -0.0000 0.6769 0.7361
vn -0.0000 0.9545 0.2983
vt 0.000000 0.000000
vt 0.000000 0.000000
vt 0.000000 0.000000
vt 0.000000 0.000000
vt 0.000000 0.000000
vt 0.000000 0.000000
vt 0.000000 0.000000
vt 0.000000 0.000000
s 0
f 2/2/1 8/8/1 1/1/1
f 7/7/2 2/2/2 1/1/2
f 5/5/3 6/6/3 3/3/3
f 8/8/4 7/7/4 1/1/4
f 2/2/5 7/7/5 8/8/5
f 3/3/6 4/4/6 5/5/6
f 3/3/7 6/6/7 5/5/7 4/4/7
f 4/4/5 6/6/5 5/5/5
f 6/6/8 4/4/8 3/3/8
